<?xml version="1.0" encoding="utf-8"?>
<!-- Generator: Adobe Illustrator 16.0.0, SVG Export Plug-In . SVG Version: 6.00 Build 0)  -->
<!DOCTYPE svg PUBLIC "-//W3C//DTD SVG 1.1//EN" "http://www.w3.org/Graphics/SVG/1.1/DTD/svg11.dtd">
<svg version="1.1" id="Layer_1" xmlns="http://www.w3.org/2000/svg" xmlns:xlink="http://www.w3.org/1999/xlink" x="0px" y="0px"
	 width="400px" height="300px" viewBox="0 0 400 300" enable-background="new 0 0 400 300" xml:space="preserve">
<g>
	<circle cx="89.303" cy="195.877" r="14.042"/>
	<circle fill="#B30000" cx="89.303" cy="195.876" r="7.022"/>
	<rect x="60.444" y="109.292" transform="matrix(0.8661 -0.4999 0.4999 0.8661 -67.3904 52.6991)" width="8.425" height="85.653"/>
	<rect x="123.298" y="58.781" transform="matrix(0.866 0.5 -0.5 0.866 81.5757 -46.4735)" width="8.424" height="140.416"/>
	<g>
		<path fill="#666666" d="M175.156,133.813l-4.271-0.288c-3.616,0-6.583,1.016-8.903,3.047c-2.32,2.032-3.976,4.825-4.967,8.376
			v35.851h-5.759V128.87h5.04l0.72,8.639v0.576c1.504-3.199,3.52-5.695,6.047-7.487c2.527-1.792,5.535-2.688,9.022-2.688
			c0.736,0,1.448,0.056,2.136,0.169c0.688,0.112,1.255,0.231,1.704,0.359L175.156,133.813z"/>
		<path fill="#666666" d="M203.281,181.807c-6.497,0-11.896-2.399-16.199-7.198c-4.304-4.8-6.455-10.879-6.455-18.238v-2.64
			c0-7.422,2.136-13.582,6.407-18.478s9.446-7.343,15.524-7.343c6.369,0,11.377,2.016,15.023,6.047
			c3.648,4.031,5.473,9.407,5.473,16.126v4.896h-36.668v1.39c0,5.841,1.552,10.727,4.655,14.652
			c3.104,3.928,7.183,5.892,12.24,5.892c3.582,0,6.637-0.497,9.164-1.488c2.529-0.991,4.688-2.415,6.48-4.271l2.447,3.936
			c-1.951,2.057-4.424,3.688-7.414,4.9C210.967,181.201,207.408,181.807,203.281,181.807z M202.559,132.805
			c-4.254,0-7.821,1.62-10.701,4.858c-2.879,3.239-4.559,7.298-5.039,12.18l0.096,0.239h30.428v-1.436
			c0-4.499-1.328-8.265-3.982-11.297C210.701,134.32,207.104,132.805,202.559,132.805z"/>
		<path fill="#666666" d="M239.275,128.87l0.527,8.591c1.664-3.039,3.881-5.392,6.646-7.055c2.768-1.663,6.072-2.496,9.912-2.496
			c3.965,0,7.287,0.96,9.959,2.88c2.67,1.919,4.582,4.847,5.734,8.783c1.568-3.647,3.799-6.502,6.695-8.567
			c2.895-2.062,6.422-3.095,10.582-3.095c5.535,0,9.807,1.84,12.814,5.52c3.006,3.68,4.512,9.375,4.512,17.086v30.283H300.9v-30.439
			c0-6.412-1.129-10.94-3.385-13.587c-2.256-2.644-5.4-3.967-9.432-3.967c-4.447,0-7.887,1.395-10.316,4.184
			c-2.434,2.79-3.936,6.366-4.512,10.725c0,0.225,0.006,0.544,0.023,0.961c0.014,0.417,0.023,0.722,0.023,0.913v31.211h-5.807
			v-30.439c0-6.283-1.145-10.781-3.432-13.491c-2.289-2.708-5.432-4.063-9.432-4.063c-4.062,0-7.287,1.034-9.67,3.103
			c-2.385,2.068-4.055,4.85-5.016,8.343v36.548h-5.809V128.87H239.275z"/>
		<path fill="#666666" d="M341.021,181.807c-6.496,0-11.895-2.399-16.197-7.198c-4.305-4.8-6.455-10.879-6.455-18.238v-2.64
			c0-7.422,2.135-13.582,6.406-18.478s9.447-7.343,15.525-7.343c6.367,0,11.375,2.016,15.023,6.047
			c3.646,4.031,5.471,9.407,5.471,16.126v4.896h-36.666v1.39c0,5.841,1.551,10.727,4.654,14.652
			c3.104,3.928,7.182,5.892,12.238,5.892c3.582,0,6.639-0.497,9.166-1.488c2.529-0.991,4.688-2.415,6.48-4.271l2.445,3.936
			c-1.951,2.057-4.422,3.688-7.414,4.9C348.707,181.201,345.15,181.807,341.021,181.807z M340.301,132.805
			c-4.256,0-7.822,1.62-10.701,4.858s-4.561,7.298-5.041,12.18l0.096,0.239h30.428v-1.436c0-4.499-1.326-8.265-3.98-11.297
			C348.443,134.32,344.846,132.805,340.301,132.805z"/>
	</g>
	<rect x="96" y="195" fill="#B30000" width="211" height="3"/>
</g>
</svg>
