<?xml version="1.0" encoding="utf-8"?>
<!-- Generator: Adobe Illustrator 16.0.0, SVG Export Plug-In . SVG Version: 6.00 Build 0)  -->
<!DOCTYPE svg PUBLIC "-//W3C//DTD SVG 1.1//EN" "http://www.w3.org/Graphics/SVG/1.1/DTD/svg11.dtd">
<svg version="1.1" id="Layer_1" xmlns="http://www.w3.org/2000/svg" xmlns:xlink="http://www.w3.org/1999/xlink" x="0px" y="0px"
	 width="320px" height="240px" viewBox="0 0 320 240" enable-background="new 0 0 320 240" xml:space="preserve">
<circle cx="81.277" cy="149.678" r="10"/>
<rect x="60.724" y="88.015" transform="matrix(0.866 -0.5 0.5 0.866 -50.7194 47.7387)" width="6" height="60.999"/>
<rect x="105.487" y="52.042" transform="matrix(0.866 0.5 -0.5 0.866 65.5599 -40.5737)" width="6" height="100"/>
<g>
	<path fill="#666666" d="M142.822,105.479l-3.042-0.205c-2.575,0-4.688,0.724-6.34,2.17c-1.652,1.447-2.832,3.436-3.538,5.965
		v25.532H125.8v-36.982h3.589l0.513,6.152v0.41c1.071-2.278,2.506-4.056,4.307-5.332c1.8-1.276,3.942-1.914,6.426-1.914
		c0.524,0,1.031,0.04,1.521,0.12c0.49,0.08,0.894,0.165,1.213,0.256L142.822,105.479z"/>
	<path fill="#666666" d="M162.852,139.658c-4.626,0-8.472-1.709-11.536-5.127c-3.065-3.418-4.597-7.747-4.597-12.988v-1.88
		c0-5.286,1.521-9.673,4.563-13.159s6.728-5.229,11.057-5.229c4.535,0,8.102,1.436,10.699,4.307s3.896,6.699,3.896,11.484v3.486
		H150.82v0.989c0,4.16,1.105,7.64,3.315,10.436c2.21,2.797,5.115,4.195,8.716,4.195c2.551,0,4.728-0.354,6.527-1.06
		c1.801-0.706,3.338-1.72,4.615-3.042l1.742,2.803c-1.39,1.465-3.15,2.627-5.28,3.49
		C168.325,139.227,165.791,139.658,162.852,139.658z M162.338,104.761c-3.03,0-5.571,1.153-7.622,3.46s-3.247,5.197-3.589,8.674
		l0.068,0.171h21.669v-1.022c0-3.204-0.945-5.886-2.836-8.045C168.137,105.84,165.574,104.761,162.338,104.761z"/>
	<path fill="#666666" d="M188.486,101.958l0.375,6.118c1.186-2.164,2.764-3.84,4.734-5.024s4.324-1.777,7.059-1.777
		c2.824,0,5.189,0.684,7.092,2.051s3.264,3.452,4.084,6.255c1.117-2.598,2.706-4.631,4.769-6.102
		c2.062-1.469,4.574-2.204,7.536-2.204c3.942,0,6.984,1.311,9.127,3.931c2.141,2.621,3.213,6.677,3.213,12.168v21.567h-4.102
		v-21.679c0-4.566-0.804-7.791-2.41-9.676c-1.606-1.883-3.846-2.825-6.717-2.825c-3.167,0-5.617,0.993-7.348,2.979
		c-1.732,1.986-2.803,4.533-3.213,7.638c0,0.16,0.005,0.388,0.017,0.685c0.011,0.297,0.017,0.514,0.017,0.65v22.228h-4.135v-21.679
		c0-4.475-0.815-7.678-2.444-9.607c-1.63-1.929-3.868-2.894-6.716-2.894c-2.895,0-5.19,0.736-6.888,2.21
		c-1.698,1.473-2.888,3.453-3.571,5.941v26.028h-4.137v-36.982H188.486z"/>
	<path fill="#666666" d="M260.947,139.658c-4.627,0-8.472-1.709-11.536-5.127c-3.065-3.418-4.597-7.747-4.597-12.988v-1.88
		c0-5.286,1.521-9.673,4.562-13.159s6.728-5.229,11.057-5.229c4.535,0,8.102,1.436,10.699,4.307s3.896,6.699,3.896,11.484v3.486
		h-26.113v0.989c0,4.16,1.104,7.64,3.314,10.436c2.211,2.797,5.115,4.195,8.717,4.195c2.551,0,4.728-0.354,6.527-1.06
		c1.801-0.706,3.338-1.72,4.615-3.042l1.742,2.803c-1.39,1.465-3.15,2.627-5.28,3.49
		C266.421,139.227,263.887,139.658,260.947,139.658z M260.434,104.761c-3.03,0-5.57,1.153-7.621,3.46s-3.248,5.197-3.59,8.674
		l0.068,0.171h21.67v-1.022c0-3.204-0.945-5.886-2.836-8.045C266.232,105.84,263.67,104.761,260.434,104.761z"/>
</g>
<rect x="63" y="149" fill="#B30000" width="126" height="2"/>
<circle fill="#B30000" cx="81.277" cy="149.678" r="5"/>
</svg>
